<svg width="589" height="490" xmlns="http://www.w3.org/2000/svg" xmlns:xlink="http://www.w3.org/1999/xlink" overflow="hidden"><defs><clipPath id="clip0"><rect x="300" y="-1" width="589" height="490"/></clipPath></defs><g clip-path="url(#clip0)" transform="translate(-300 1)"><path d="M279.33-12.6624 294.013-12.2793 308.853-11.168 323.423-9.27321 337.785-6.72718 351.905-3.45881 365.756 0.461302 379.317 5.04706 392.571 10.3357 405.503 16.1486 418.073 22.6302 430.276 29.6776 442.103 37.2575 453.521 45.4129 464.562 54.0371 475.161 63.2622 485.272 72.9159 494.954 83.0564 504.114 93.7206 512.712 104.729 520.867 116.147 528.469 128.008 535.451 140.275 541.919 152.82 547.742 165.84 552.962 179.084 557.539 192.619 559.842 200.758 535.466 207.657 533.25 199.824 533.438 200.433 529.063 187.495 529.278 188.082 524.278 175.394 524.5 175.921 518.937 163.484 519.242 164.117 513.054 152.117 513.304 152.578 506.616 140.828 506.961 141.397 499.71 130.085 500.068 130.612 492.255 119.675 492.58 120.109 484.33 109.547 484.704 110.003 475.954 99.8156 476.401 100.31 467.151 90.6224 467.565 91.0362 457.878 81.7862 458.309 82.1795 448.184 73.367 448.703 73.795 438.14 65.545 438.575 65.8698 427.638 58.0573 428.165 58.4145 416.853 51.1645 417.353 51.4688 405.665 44.7188 406.195 45.0082 394.195 38.8207 394.807 39.1157 382.432 33.5532 382.931 33.7647 370.243 28.7022 370.88 28.9366 357.942 24.5616 358.551 24.7504 345.301 21.0004 345.893 21.1529 332.393 18.0279 333.039 18.1597 319.289 15.7222 319.866 15.8109 305.929 13.9984 306.617 14.0688 292.429 13.0063 293.045 13.0374 278.67 12.6624ZM547.654 204.207 603.501 145.391 558 279.5 478.013 162.634Z" transform="matrix(-1 0 0 1 1167.5 81.5001)"/><text font-family="Microsoft YaHei,Microsoft YaHei_MSFontService,sans-serif" font-weight="900" font-size="117" transform="translate(371.446 149)">左<tspan font-size="117" x="117.333" y="0">旋</tspan></text></g></svg>