<svg width="536" height="490" xmlns="http://www.w3.org/2000/svg" xmlns:xlink="http://www.w3.org/1999/xlink" overflow="hidden"><defs><clipPath id="clip0"><rect x="640" y="-1" width="536" height="490"/></clipPath></defs><g clip-path="url(#clip0)" transform="translate(-640 1)"><path d="M641.83 68.8377 656.514 69.2207 671.353 70.3321 685.923 72.2268 700.286 74.7729 714.405 78.0412 728.256 81.9614 741.817 86.5471 755.071 91.8358 768.003 97.6487 780.573 104.13 792.776 111.178 804.603 118.758 816.021 126.913 827.062 135.537 837.661 144.762 847.772 154.416 857.454 164.556 866.614 175.221 875.212 186.229 883.367 197.647 890.969 209.508 897.951 221.775 904.419 234.32 910.242 247.34 915.462 260.584 920.039 274.119 922.342 282.258 897.966 289.157 895.75 281.324 895.938 281.933 891.563 268.995 891.778 269.582 886.778 256.894 887 257.421 881.437 244.984 881.742 245.618 875.554 233.618 875.804 234.078 869.116 222.328 869.461 222.897 862.211 211.585 862.568 212.112 854.755 201.175 855.08 201.61 846.83 191.047 847.204 191.503 838.454 181.316 838.901 181.81 829.651 172.122 830.065 172.536 820.378 163.286 820.809 163.68 810.684 154.867 811.203 155.295 800.641 147.045 801.075 147.37 790.138 139.557 790.665 139.915 779.353 132.665 779.853 132.969 768.165 126.219 768.695 126.508 756.695 120.321 757.307 120.616 744.932 115.053 745.431 115.265 732.743 110.202 733.38 110.437 720.442 106.062 721.051 106.25 707.801 102.5 708.393 102.653 694.893 99.5279 695.539 99.6598 681.789 97.2223 682.367 97.311 668.429 95.4985 669.117 95.5688 654.929 94.5063 655.545 94.5374 641.17 94.1624ZM910.154 285.708 966.001 226.891 920.5 361 840.513 244.134Z"/><text font-family="Microsoft YaHei,Microsoft YaHei_MSFontService,sans-serif" font-weight="900" font-size="117" transform="translate(870.552 149)">右旋</text></g></svg>